<?xml version="1.0" encoding="utf-8"?>
<!-- Generator: Adobe Illustrator 24.0.1, SVG Export Plug-In . SVG Version: 6.00 Build 0)  -->
<svg version="1.1" id="Layer_1" xmlns="http://www.w3.org/2000/svg" xmlns:xlink="http://www.w3.org/1999/xlink" x="0px" y="0px"
	 viewBox="0 0 92.1 72" style="enable-background:new 0 0 92.1 72;" xml:space="preserve">
<style type="text/css">
	.st0{fill:#001100;}
</style>
<g>
	<path class="st0" d="M25.7,55.1h4.4v-3c2.6-0.3,4.7-1,6.3-2.4c1.6-1.3,2.4-3.3,2.4-5.7c0-2.3-0.7-4.1-2-5.7
		c-1.3-1.6-3.6-2.9-6.8-4.3c-2.6-1-4.3-2-5.3-2.9c-1-0.8-1.6-2-1.6-3.3c0-1,0.4-2,1.3-2.8c1-0.8,2.1-1,3.7-1c1.3,0,2.6,0.3,3.5,1
		c1,0.6,1.7,1.6,2.4,2.9l3.9-1.7c-1-1.9-1.9-3.3-3-4.1c-1.2-0.8-2.7-1.3-4.3-1.7v-2.9h-4.4v3c-2.4,0.4-4.3,1.3-5.5,2.7
		c-1.2,1.4-1.9,3-1.9,5c0,2.3,0.8,4.1,2.3,5.6c1.5,1.3,3.7,2.7,6.8,3.9c2.6,1,4.3,2,5.3,3s1.5,2.1,1.5,3.5c0,1.3-0.6,2.4-1.6,3.2
		s-2.6,1.2-4.3,1.2s-3.2-0.6-4.6-1.5c-1.3-1-2.1-2.4-2.7-4.1l-4,1.3c1,2.3,2.1,4,3.6,5.3c1.5,1.2,3,2.1,4.9,2.6V55
		C26.1,55.1,25.7,55.1,25.7,55.1z M28,64c-3.9,0-7.5-0.7-10.9-2.1s-6.4-3.5-8.9-6c-2.5-2.6-4.6-5.6-6-8.9C0.7,43.6,0,39.9,0,36
		s0.7-7.6,2.1-10.9c1.5-3.5,3.5-6.4,6-8.9s5.6-4.6,8.9-6C20.5,8.7,24.1,8,28,8s7.6,0.7,10.9,2.1s6.4,3.5,8.9,6s4.6,5.6,6,8.9
		c1.5,3.5,2.2,7.1,2.2,11s-0.7,7.5-2.1,10.9s-3.5,6.4-6,8.9s-5.6,4.6-8.9,6C35.5,63.3,31.9,64,28,64z M28,58
		c6.2,0,11.2-2.1,15.6-6.4C47.9,47.3,50,42.1,50,36s-2.1-11.2-6.4-15.6C39.3,16.1,34.1,14,28,14c-6,0-11.2,2.1-15.5,6.4
		C8.1,24.7,6,29.9,6,36c0,6,2.1,11.2,6.4,15.5S21.8,58,28,58z"/>
	<g>
		<path class="st0" d="M67,25.6c-0.9-0.1-1.9-0.6-2.7-1.1l0.9-1.3c0.8,0.6,1.5,0.9,2.2,0.9c0.9,0,1.3-0.4,1.3-1.2c0-1.8-4-1.7-4-4.5
			c0-1.5,0.9-2.5,2.2-2.7V14h1.3v1.6c1,0.1,1.7,0.6,2.2,1.2l-1,1.1c-0.6-0.6-1-0.8-1.7-0.8c-0.8,0-1.2,0.3-1.2,1.1
			c0,1.7,4,1.5,4,4.4c0,1.5-0.8,2.6-2.4,2.8V27h-1.3v-1.5H67V25.6z"/>
		<path class="st0" d="M72.7,22.7V18h2v4.5c0,1.1,0.3,1.6,1,1.6s1-0.2,1.6-0.9V18h2v7.5h-1.6l-0.1-1.1l0,0c-0.7,0.8-1.3,1.2-2.4,1.2
			C73.3,25.7,72.7,24.5,72.7,22.7z"/>
		<path class="st0" d="M81.4,18H83l0.2,0.8l0,0c0.7-0.6,1.5-1,2.2-1c1.9,0,2.9,1.6,2.9,3.8c0,2.6-1.6,4-3.2,4
			c-0.7,0-1.3-0.3-1.9-0.8l0.1,1.2v2.2h-2V18H81.4z M86.3,21.6c0-1.5-0.4-2.2-1.5-2.2c-0.6,0-1,0.2-1.5,0.8v3.4
			c0.4,0.4,1,0.6,1.3,0.6C85.6,24,86.3,23.2,86.3,21.6z"/>
		<path class="st0" d="M64,31.6h2l0.8,4.8c0.1,1,0.3,2.1,0.4,3.1l0,0c0.2-1.1,0.4-2.1,0.7-3.1l1.1-4.8h1.7l1.1,4.8
			c0.2,1,0.4,2.1,0.7,3.1h0.1c0.1-1.1,0.3-2.1,0.4-3.1l0.8-4.8h1.9l-1.8,10h-2.5l-1.1-4.9c-0.1-0.8-0.3-1.6-0.4-2.4l0,0
			c-0.1,0.8-0.2,1.6-0.4,2.4l-1.1,4.9H66L64,31.6z"/>
		<path class="st0" d="M76.7,37.8c0-2.5,1.7-3.9,3.5-3.9c2,0,3.1,1.6,3.1,3.6c0,0.3,0,0.8-0.1,0.9h-4.6c0.1,1.2,1,1.9,2.1,1.9
			c0.7,0,1.1-0.2,1.7-0.6L83,41c-0.8,0.6-1.7,0.8-2.6,0.8C78.3,41.8,76.7,40.3,76.7,37.8z M81.6,37c0-1-0.4-1.7-1.5-1.7
			c-0.8,0-1.5,0.6-1.7,1.7H81.6z"/>
		<path class="st0" d="M86.8,40.8L86.8,40.8l-0.2,0.8H85V30.8h2v2.7v1.2c0.6-0.6,1.3-0.9,2.1-0.9c1.9,0,3,1.6,3,3.8
			c0,2.6-1.6,4-3.2,4C88.1,41.8,87.4,41.4,86.8,40.8z M90,37.7c0-1.5-0.4-2.2-1.5-2.2c-0.6,0-1,0.2-1.5,0.8v3.2
			c0.4,0.4,1,0.6,1.3,0.6C89.3,40.1,90,39.4,90,37.7z"/>
		<path class="st0" d="M65,47.8h3.2c2.2,0,3.9,0.8,3.9,3.1c0,2.2-1.7,3.2-3.8,3.2H67v3.6h-2L65,47.8L65,47.8z M68.2,52.6
			c1.3,0,2-0.6,2-1.7c0-1.1-0.7-1.6-2.1-1.6H67v3.2L68.2,52.6L68.2,52.6z"/>
		<path class="st0" d="M73.8,54.9v-4.7h2v4.5c0,1.1,0.3,1.6,1,1.6s1-0.2,1.6-0.9v-5h2v7.5h-1.8l-0.1-1.1l0,0
			c-0.7,0.8-1.3,1.2-2.4,1.2C74.4,58,73.8,56.7,73.8,54.9z"/>
		<path class="st0" d="M84.3,57L84.3,57L84,57.8h-1.6V47h2v2.7v1.2c0.6-0.6,1.3-0.9,2.1-0.9c1.9,0,3,1.6,3,3.8c0,2.6-1.6,4-3.2,4
			C85.5,58,84.8,57.6,84.3,57z M87.4,53.8c0-1.5-0.4-2.2-1.5-2.2c-0.6,0-1,0.2-1.5,0.8v3.4c0.4,0.4,1,0.6,1.3,0.6
			C86.7,56.3,87.4,55.5,87.4,53.8z"/>
	</g>
</g>
</svg>
