<svg xmlns="http://www.w3.org/2000/svg" viewBox="0 0 36 36.38"><defs><style>.cls-1{fill:none;}.cls-2{fill:#b5121b;}</style></defs><title>Asset 1</title><g id="Layer_2" data-name="Layer 2"><g id="Layer_1-2" data-name="Layer 1"><rect class="cls-1" y="0.19" width="36" height="36"/><path class="cls-2" d="M29,7.67H26a8,8,0,0,0-16,0H7L4.75,36.38h26.5ZM18,2a6,6,0,0,1,6,5.67H12A6,6,0,0,1,18,2ZM11.61,12.29A1.29,1.29,0,1,1,12.9,11,1.3,1.3,0,0,1,11.61,12.29Zm12.41,0A1.29,1.29,0,1,1,25.31,11,1.29,1.29,0,0,1,24,12.29Z"/></g></g></svg>