<svg xmlns="http://www.w3.org/2000/svg" viewBox="0 0 86.15 18"><defs><style>.cls-1{fill:#fff;}</style></defs><title>Asset 1</title><g id="Layer_2" data-name="Layer 2"><g id="Layer_1-2" data-name="Layer 1"><path class="cls-1" d="M14.54,17.76H9.69V10.44H4.88v7.32H0V.24H4.88v7H9.69v-7h4.85Z"/><path class="cls-1" d="M33.27,9.36a9.22,9.22,0,0,1-1.1,4.54,7.5,7.5,0,0,1-3.12,3A9.69,9.69,0,0,1,24.45,18a9.88,9.88,0,0,1-4.59-1A7.56,7.56,0,0,1,16.74,14a9.05,9.05,0,0,1-1.17-4.39v-1a9.16,9.16,0,0,1,1.09-4.54,7.46,7.46,0,0,1,3.13-3A9.82,9.82,0,0,1,24.42,0,9.64,9.64,0,0,1,29,1.06a7.59,7.59,0,0,1,3.14,3,9.06,9.06,0,0,1,1.13,4.48Zm-5-.73a6.6,6.6,0,0,0-1-4,3.37,3.37,0,0,0-2.88-1.35c-2.44,0-3.74,1.59-3.88,4.76V9.36a6.73,6.73,0,0,0,1,4,3.35,3.35,0,0,0,2.93,1.38,3.33,3.33,0,0,0,2.85-1.36,6.63,6.63,0,0,0,1-3.91Z"/><path class="cls-1" d="M38.3,14.51h7L44,17.76H34.3V.24h4Z"/><path class="cls-1" d="M50.29,14.51h7L56,17.76H46.29V.24h4Z"/><path class="cls-1" d="M63.3,7.84,67,.24h5.26L65.78,11.47v6.29h-5V11.47L54.33.24h5.24Z"/><path class="cls-1" d="M82,13.1a1.75,1.75,0,0,0-.65-1.44,7.9,7.9,0,0,0-2.27-1.07,23.08,23.08,0,0,1-2.66-1.07q-3.34-1.68-3.35-4.6a4.2,4.2,0,0,1,.83-2.57A5.43,5.43,0,0,1,76.26.62,9.13,9.13,0,0,1,79.7,0,7.89,7.89,0,0,1,83,.67a5.32,5.32,0,0,1,2.3,1.92,5.12,5.12,0,0,1,.82,2.85H82a2.12,2.12,0,0,0-.65-1.66,2.5,2.5,0,0,0-1.75-.59,2.77,2.77,0,0,0-1.76.5,1.49,1.49,0,0,0,.07,2.49,8.92,8.92,0,0,0,2.5,1.13,15.39,15.39,0,0,1,2.94,1.26,5,5,0,0,1,2.8,4.51,4.31,4.31,0,0,1-1.71,3.61A7.54,7.54,0,0,1,79.76,18a9.15,9.15,0,0,1-3.8-.76,5.69,5.69,0,0,1-2.56-2.1,5.43,5.43,0,0,1-.86-3.06h4.17a2.72,2.72,0,0,0,.72,2.08,3.36,3.36,0,0,0,2.33.66,2.67,2.67,0,0,0,1.63-.45A1.49,1.49,0,0,0,82,13.1Z"/></g></g></svg>